<svg xmlns="http://www.w3.org/2000/svg" viewBox="0 0 24 24" fill="#F0DB4F" width="48px" height="48px">
  <path d="M12,0C5.4,0,0,5.4,0,12c0,6.6,5.4,12,12,12c6.6,0,12-5.4,12-12C24,5.4,18.6,0,12,0z M10.4,17.3c0.2,0.4,0.6,0.7,1.1,0.7
  c0.4,0,0.6-0.2,0.6-0.5c0-0.3-0.2-0.4-0.6-0.5l-1-0.3c-1.4-0.3-2.1-1-2.1-2.1c0-1.1,0.8-1.9,2.1-1.9c1.2,0,1.9,0.7,2.1,1.6h-1.5
  c-0.2-0.3-0.5-0.4-0.7-0.4c-0.4,0-0.6,0.2-0.6,0.4c0,0.3,0.3,0.4,0.6,0.5l1,0.3c1.4,0.3,2.1,1,2.1,2.2c0,1.2-1,2-2.3,2
  c-1.5,0-2.3-0.8-2.5-1.7H10.4z M16,17.8c0.5,0,0.8-0.2,0.8-0.5c0-0.3-0.2-0.4-0.6-0.5l-0.4-0.1c-0.4-0.1-0.8-0.3-0.8-0.8
  c0-0.4,0.3-0.8,1-0.8c0.4,0,0.7,0.1,0.9,0.3l0.5-1.1c-0.3-0.2-0.7-0.4-1.5-0.4c-1,0-1.8,0.6-1.8,1.5c0,0.7,0.5,1,1,1.1
  l0.5,0.1c0.4,0.1,0.6,0.3,0.6,0.6c0,0.4-0.3,0.6-1,0.6c-0.4,0-0.7-0.1-0.9-0.3l-0.5,1.1C15,17.7,15.5,17.8,16,17.8z"/>
</svg>