<svg xmlns="http://www.w3.org/2000/svg" viewBox="0 0 24 24" fill="#306998" width="48px" height="48px">
  <path d="M12,0C5.4,0,0,5.4,0,12c0,6.6,5.4,12,12,12c6.6,0,12-5.4,12-12C24,5.4,18.6,0,12,0z M16.6,16.3c0.1-0.6,0.3-1.2,0.3-1.8
  c0-1.1-0.8-1.9-2.1-1.9c-1.2,0-2.1,0.9-2.1,1.9c0,0.6,0.2,1.1,0.6,1.5c-0.8,0.2-1.7,0.3-2.6,0.3c-1.4,0-2.8-0.4-4.1-1.2l0.8-0.9
  c1,0.5,2.1,0.7,3.2,0.7c2.5,0,4.5-1.9,4.5-4.3c0-1.3-0.5-2.4-1.4-3.2c-0.3-0.3-0.7-0.5-1-0.7c0.4-1.6,0.5-3.3,0.3-5
  c-0.1-0.5-0.5-0.9-1-1c-1.3-0.2-2.6-0.2-3.8,0c-0.6,0.1-1,0.5-1.1,1c-0.2,1.2-0.3,2.5-0.1,3.8h-2.1c-0.9,0-1.8,0.7-1.8,1.6v5.6
  c0,1.6,1.4,2.9,3,2.9h2.6c0.7,0,1.4-0.2,2-0.7c0.4,0.1,0.7,0.1,1.1,0.1c0.7,0,1.3-0.1,2-0.2c0.4-0.1,0.8-0.4,1-0.8
  c0.5-1,1-1.9,1.3-3C17.1,17.4,16.9,16.9,16.6,16.3z"/>
</svg>