<svg xmlns="http://www.w3.org/2000/svg" viewBox="0 0 24 24" fill="#CC2927" width="48px" height="48px">
  <path d="M12,0C5.4,0,0,5.4,0,12c0,6.6,5.4,12,12,12c6.6,0,12-5.4,12-12C24,5.4,18.6,0,12,0z M10.3,15.8c0.2,0.3,0.2,0.5,0.3,0.8
  c0.1,0.3,0.2,0.5,0.3,0.8c0.1,0.3,0.2,0.5,0.4,0.7c0.3,0.4,0.6,0.6,1,0.6c0.4,0,0.7-0.2,1-0.6c0.3-0.4,0.5-0.8,0.7-1.2
  c0.2-0.4,0.5-0.9,0.8-1.4c0.3-0.5,0.6-1,1-1.5c0.3-0.5,0.7-0.9,1.1-1.3c0.3-0.3,0.7-0.7,1-1c0.3-0.3,0.7-0.6,1-1
  c0.3-0.4,0.6-0.8,0.9-1.2c0.2-0.3,0.4-0.6,0.5-1.1c0.1-0.5,0.1-0.9,0-1.3c-0.1-0.4-0.3-0.8-0.6-1.2c-0.4-0.5-0.9-0.9-1.5-1.2
  c-0.6-0.3-1.3-0.4-2-0.4c-1.1,0-2.2,0.2-3.2,0.7c-0.5,0.2-0.9,0.4-1.3,0.7c-0.4,0.3-0.7,0.5-1,0.7c-0.4,0.2-0.6,0.5-0.9,0.9
  c-0.3,0.4-0.5,0.8-0.7,1.2c-0.2,0.4-0.3,0.8-0.3,1.2c0,0.3,0.1,0.5,0.4,0.7c0.3,0.2,0.7,0.3,1.2,0.3c0.5,0,0.9-0.1,1.2-0.4
  c0.3-0.3,0.6-0.5,0.8-0.7c0.3-0.2,0.5-0.4,0.8-0.5c0.5-0.2,1-0.3,1.6-0.3c0.4,0,0.8,0.1,1.2,0.3c0.4,0.2,0.7,0.5,0.9,0.9
  c0.3,0.4,0.3,0.9,0,1.3c-0.2,0.3-0.6,0.6-1.1,0.9c-0.4,0.3-1,0.7-1.7,1.1c-0.7,0.4-1.4,0.9-2,1.4c-0.7,0.5-1.4,1.1-2,1.7
  C10.6,15.3,10.4,15.6,10.3,15.8z"/>
</svg>