<svg xmlns="http://www.w3.org/2000/svg" viewBox="0 0 24 24" fill="#092E20" width="48px" height="48px">
  <path d="M12,0C5.4,0,0,5.4,0,12c0,6.6,5.4,12,12,12c6.6,0,12-5.4,12-12C24,5.4,18.6,0,12,0z M15.2,15.4v1.5h1.5v-1.5h-1.5z
  M15.2,8.1v5.8h1.5V8.1H15.2z M10.3,7.4c-0.3,0-0.6,0.2-0.8,0.5L7.8,13.6l0.3,1.1c0.2,0.5,0.6,0.8,1,0.8c0.2,0,0.4,0,0.6-0.2
  c0.2-0.1,0.4-0.4,0.5-0.7l1.1-4.7c0.1-0.5-0.2-0.9-0.7-0.9H10.3z M11.6,16.4c-0.4,0.2-1.2,0.6-1.8,1c-0.2,0.1-0.2,0.5,0,0.6
  c0.8,0.6,1.7,1.1,2.8,1.5c1,0.3,2,0.5,3.1,0.5c2.6,0,4.8-1.7,4.8-4.4V8.1c0-2.6-2.2-4.4-4.8-4.4c-1,0-2.1,0.2-3.1,0.5
  c-0.8,0.2-1.6,0.6-2.4,1.1c-0.2,0.1-0.2,0.5,0,0.6c0.9,0.7,1.8,1.4,2.7,2c0.2,0.1,0.5,0.1,0.7-0.1c0.7-0.7,1.7-1.2,2.8-1.2
  c2.1,0,3.7,1.5,3.7,3.6v3.7c0,2.1-1.6,3.6-3.7,3.6c-1.2,0-2.2-0.5-2.8-1.3c-0.2-0.2-0.5-0.3-0.7-0.1c-1,0.7-2,1.4-3,2.2
  C11.6,16.3,11.6,16.4,11.6,16.4z"/>
</svg>