<svg xmlns="http://www.w3.org/2000/svg" viewBox="0 0 24 24" fill="#F05032" width="48px" height="48px">
  <path d="M23.1,10.5L13.5,0.9c-0.7-0.7-1.9-0.7-2.6,0l-1.9,1.9l2.7,2.7c0.9-0.3,2-0.2,2.8,0.5c0.8,0.8,1,2.1,0.5,3l2.5,2.5
  c0.9-0.5,2.2-0.4,3,0.5C22.9,12.5,23,14,22.2,15c-0.8,1-2.3,1.1-3.3,0.3c-0.9-0.7-1-1.9-0.5-2.8l-2.3-2.3v6.1c0.8,0.4,1.3,1.2,1.3,2.1
  c0,1.3-1.1,2.4-2.4,2.4c-1.3,0-2.4-1.1-2.4-2.4c0-0.9,0.5-1.7,1.3-2.1v-6.4c-0.3-0.1-0.5-0.1-0.8-0.1c-0.3,0-0.5,0-0.8,0.1v6.4
  c0.8,0.4,1.3,1.2,1.3,2.1c0,1.3-1.1,2.4-2.4,2.4c-1.3,0-2.4-1.1-2.4-2.4c0-0.9,0.5-1.7,1.3-2.1v-6.1c-0.8-0.4-1.3-1.2-1.3-2.1
  c0-1.3,1.1-2.4,2.4-2.4c0.3,0,0.5,0,0.8,0.1L8.3,3.7L0.9,11.1c-0.7,0.7-0.7,1.9,0,2.6l9.6,9.6c0.7,0.7,1.9,0.7,2.6,0l10.1-10.1
  C23.8,12.3,23.8,11.2,23.1,10.5z"/>
</svg>