<svg xmlns="http://www.w3.org/2000/svg" viewBox="0 0 24 24" fill="#26C485" width="48px" height="48px">
  <path d="M12,0C5.4,0,0,5.4,0,12c0,6.6,5.4,12,12,12c6.6,0,12-5.4,12-12C24,5.4,18.6,0,12,0z M17.3,12.8c-0.1,1.7-0.7,3.4-1.9,4.9
  c-2.2,2.6-5.6,3.6-9,2.8c-1.4-0.3-2.8-1-4.1-2c-0.5-0.4-0.6-1.1-0.3-1.6c0.4-0.5,1.1-0.6,1.6-0.3c0.5,0.4,1,0.7,1.6,1
  c2.2,0.8,4.6,0.2,6.2-1.5c0.9-1.1,1.4-2.5,1.5-3.9h-1.6c-0.5,0-0.9-0.4-0.9-0.9V9.5c0-0.5,0.4-0.9,0.9-0.9h2.5c0.5,0,0.9,0.4,0.9,0.9
  v4.3c0,0.5-0.4,0.9-0.9,0.9h-1.2C16.7,15.7,17.1,14.3,17.3,12.8z"/>
</svg>