<svg xmlns="http://www.w3.org/2000/svg" viewBox="0 0 24 24" fill="#FF9900" width="48px" height="48px">
  <path d="M12,0C5.4,0,0,5.4,0,12c0,6.6,5.4,12,12,12c6.6,0,12-5.4,12-12C24,5.4,18.6,0,12,0z M15.9,15.1c-0.2,0.1-0.4,0.2-0.6,0.2
  c-0.3,0-0.6-0.1-0.8-0.3l-2-2c-0.4-0.4-0.4-1,0-1.4l2-2c0.4-0.4,1-0.4,1.4,0s0.4,1,0,1.4l-1.2,1.2l1.2,1.2C16.3,14.2,16.3,14.8,15.9,15.1
  z M10.9,9c-0.4,0-0.7-0.3-0.7-0.7S10.5,7.5,10.9,7.5h2.2c0.4,0,0.7,0.3,0.7,0.7S13.5,9,13.1,9H10.9z M9.5,16.4c-0.4,0.4-1,0.4-1.4,0
  l-2-2c-0.4-0.4-0.4-1,0-1.4l2-2c0.4-0.4,1-0.4,1.4,0s0.4,1,0,1.4l-1.2,1.2l1.2,1.2C9.9,15.4,9.9,16,9.5,16.4z"/>
</svg>